<svg xmlns="http://www.w3.org/2000/svg" width="446" height="138" viewBox="0 0 446 138">
  <rect x="20" y="34" width="11" height="11" rx="2" ry="2" fill="#9be9a8"><title>2024-01-01: 10</title></rect>
  <rect x="20" y="48" width="11" height="11" rx="2" ry="2" fill="#9be9a8"><title>2024-01-02: 4</title></rect>
  <rect x="20" y="62" width="11" height="11" rx="2" ry="2" fill="#216e39"><title>2024-01-03: 35</title></rect>
  <rect x="20" y="76" width="11" height="11" rx="2" ry="2" fill="#216e39"><title>2024-01-04: 38</title></rect>
  <rect x="20" y="90" width="11" height="11" rx="2" ry="2" fill="#30a14e"><title>2024-01-05: 33</title></rect>
  <rect x="20" y="104" width="11" height="11" rx="2" ry="2" fill="#9be9a8"><title>2024-01-06: 6</title></rect>
  <rect x="34" y="20" width="11" height="11" rx="2" ry="2" fill="#9be9a8"><title>2024-01-07: 5</title></rect>
  <rect x="34" y="34" width="11" height="11" rx="2" ry="2" fill="#216e39"><title>2024-01-08: 36</title></rect>
  <rect x="34" y="48" width="11" height="11" rx="2" ry="2" fill="#216e39"><title>2024-01-09: 37</title></rect>
  <rect x="34" y="62" width="11" height="11" rx="2" ry="2" fill="#40c463"><title>2024-01-10: 15</title></rect>
  <rect x="34" y="76" width="11" height="11" rx="2" ry="2" fill="#ebedf0"><title>2024-01-11: 0</title></rect>
  <rect x="34" y="90" width="11" height="11" rx="2" ry="2" fill="#9be9a8"><title>2024-01-12: 4</title></rect>
  <rect x="34" y="104" width="11" height="11" rx="2" ry="2" fill="#30a14e"><title>2024-01-13: 26</title></rect>
  <rect x="48" y="20" width="11" height="11" rx="2" ry="2" fill="#40c463"><title>2024-01-14: 15</title></rect>
  <rect x="48" y="34" width="11" height="11" rx="2" ry="2" fill="#9be9a8"><title>2024-01-15: 9</title></rect>
  <rect x="48" y="48" width="11" height="11" rx="2" ry="2" fill="#9be9a8"><title>2024-01-16: 10</title></rect>
  <rect x="48" y="62" width="11" height="11" rx="2" ry="2" fill="#216e39"><title>2024-01-17: 37</title></rect>
  <rect x="48" y="76" width="11" height="11" rx="2" ry="2" fill="#216e39"><title>2024-01-18: 44</title></rect>
  <rect x="48" y="90" width="11" height="11" rx="2" ry="2" fill="#216e39"><title>2024-01-19: 38</title></rect>
  <rect x="48" y="104" width="11" height="11" rx="2" ry="2" fill="#40c463"><title>2024-01-20: 13</title></rect>
  <rect x="62" y="20" width="11" height="11" rx="2" ry="2" fill="#216e39"><title>2024-01-21: 36</title></rect>
  <rect x="62" y="34" width="11" height="11" rx="2" ry="2" fill="#ebedf0"><title>2024-01-22: 0</title></rect>
  <rect x="62" y="48" width="11" height="11" rx="2" ry="2" fill="#216e39"><title>2024-01-23: 40</title></rect>
  <rect x="62" y="62" width="11" height="11" rx="2" ry="2" fill="#216e39"><title>2024-01-24: 44</title></rect>
  <rect x="62" y="76" width="11" height="11" rx="2" ry="2" fill="#40c463"><title>2024-01-25: 21</title></rect>
  <rect x="62" y="90" width="11" height="11" rx="2" ry="2" fill="#30a14e"><title>2024-01-26: 30</title></rect>
  <rect x="62" y="104" width="11" height="11" rx="2" ry="2" fill="#40c463"><title>2024-01-27: 16</title></rect>
  <rect x="76" y="20" width="11" height="11" rx="2" ry="2" fill="#ebedf0"><title>2024-01-28: 0</title></rect>
  <rect x="76" y="34" width="11" height="11" rx="2" ry="2" fill="#ebedf0"><title>2024-01-29: 0</title></rect>
  <rect x="76" y="48" width="11" height="11" rx="2" ry="2" fill="#216e39"><title>2024-01-30: 37</title></rect>
  <rect x="76" y="62" width="11" height="11" rx="2" ry="2" fill="#30a14e"><title>2024-01-31: 32</title></rect>
  <rect x="76" y="76" width="11" height="11" rx="2" ry="2" fill="#ebedf0"><title>2024-02-01: 0</title></rect>
  <rect x="76" y="90" width="11" height="11" rx="2" ry="2" fill="#ebedf0"><title>2024-02-02: 0</title></rect>
  <rect x="76" y="104" width="11" height="11" rx="2" ry="2" fill="#9be9a8"><title>2024-02-03: 5</title></rect>
  <rect x="90" y="20" width="11" height="11" rx="2" ry="2" fill="#30a14e"><title>2024-02-04: 27</title></rect>
  <rect x="90" y="34" width="11" height="11" rx="2" ry="2" fill="#40c463"><title>2024-02-05: 22</title></rect>
  <rect x="90" y="48" width="11" height="11" rx="2" ry="2" fill="#30a14e"><title>2024-02-06: 32</title></rect>
  <rect x="90" y="62" width="11" height="11" rx="2" ry="2" fill="#216e39"><title>2024-02-07: 43</title></rect>
  <rect x="90" y="76" width="11" height="11" rx="2" ry="2" fill="#216e39"><title>2024-02-08: 36</title></rect>
  <rect x="90" y="90" width="11" height="11" rx="2" ry="2" fill="#40c463"><title>2024-02-09: 21</title></rect>
  <rect x="90" y="104" width="11" height="11" rx="2" ry="2" fill="#30a14e"><title>2024-02-10: 23</title></rect>
  <rect x="104" y="20" width="11" height="11" rx="2" ry="2" fill="#216e39"><title>2024-02-11: 38</title></rect>
  <rect x="104" y="34" width="11" height="11" rx="2" ry="2" fill="#ebedf0"><title>2024-02-12: 0</title></rect>
  <rect x="104" y="48" width="11" height="11" rx="2" ry="2" fill="#9be9a8"><title>2024-02-13: 6</title></rect>
  <rect x="104" y="62" width="11" height="11" rx="2" ry="2" fill="#ebedf0"><title>2024-02-14: 0</title></rect>
  <rect x="104" y="76" width="11" height="11" rx="2" ry="2" fill="#216e39"><title>2024-02-15: 43</title></rect>
  <rect x="104" y="90" width="11" height="11" rx="2" ry="2" fill="#216e39"><title>2024-02-16: 45</title></rect>
  <rect x="104" y="104" width="11" height="11" rx="2" ry="2" fill="#216e39"><title>2024-02-17: 37</title></rect>
  <rect x="118" y="20" width="11" height="11" rx="2" ry="2" fill="#ebedf0"><title>2024-02-18: 0</title></rect>
  <rect x="118" y="34" width="11" height="11" rx="2" ry="2" fill="#ebedf0"><title>2024-02-19: 0</title></rect>
  <rect x="118" y="48" width="11" height="11" rx="2" ry="2" fill="#30a14e"><title>2024-02-20: 25</title></rect>
  <rect x="118" y="62" width="11" height="11" rx="2" ry="2" fill="#ebedf0"><title>2024-02-21: 0</title></rect>
  <rect x="118" y="76" width="11" height="11" rx="2" ry="2" fill="#30a14e"><title>2024-02-22: 30</title></rect>
  <rect x="118" y="90" width="11" height="11" rx="2" ry="2" fill="#216e39"><title>2024-02-23: 40</title></rect>
  <rect x="118" y="104" width="11" height="11" rx="2" ry="2" fill="#9be9a8"><title>2024-02-24: 4</title></rect>
  <rect x="132" y="20" width="11" height="11" rx="2" ry="2" fill="#40c463"><title>2024-02-25: 19</title></rect>
  <rect x="132" y="34" width="11" height="11" rx="2" ry="2" fill="#40c463"><title>2024-02-26: 16</title></rect>
  <rect x="132" y="48" width="11" height="11" rx="2" ry="2" fill="#30a14e"><title>2024-02-27: 32</title></rect>
  <rect x="132" y="62" width="11" height="11" rx="2" ry="2" fill="#30a14e"><title>2024-02-28: 29</title></rect>
  <rect x="132" y="76" width="11" height="11" rx="2" ry="2" fill="#40c463"><title>2024-02-29: 18</title></rect>
  <rect x="132" y="90" width="11" height="11" rx="2" ry="2" fill="#ebedf0"><title>2024-03-01: 0</title></rect>
  <rect x="132" y="104" width="11" height="11" rx="2" ry="2" fill="#ebedf0"><title>2024-03-02: 0</title></rect>
  <rect x="146" y="20" width="11" height="11" rx="2" ry="2" fill="#ebedf0"><title>2024-03-03: 0</title></rect>
  <rect x="146" y="34" width="11" height="11" rx="2" ry="2" fill="#30a14e"><title>2024-03-04: 27</title></rect>
  <rect x="146" y="48" width="11" height="11" rx="2" ry="2" fill="#ebedf0"><title>2024-03-05: 0</title></rect>
  <rect x="146" y="62" width="11" height="11" rx="2" ry="2" fill="#ebedf0"><title>2024-03-06: 0</title></rect>
  <rect x="146" y="76" width="11" height="11" rx="2" ry="2" fill="#40c463"><title>2024-03-07: 15</title></rect>
  <rect x="146" y="90" width="11" height="11" rx="2" ry="2" fill="#40c463"><title>2024-03-08: 12</title></rect>
  <rect x="146" y="104" width="11" height="11" rx="2" ry="2" fill="#216e39"><title>2024-03-09: 43</title></rect>
  <rect x="160" y="20" width="11" height="11" rx="2" ry="2" fill="#30a14e"><title>2024-03-10: 32</title></rect>
  <rect x="160" y="34" width="11" height="11" rx="2" ry="2" fill="#ebedf0"><title>2024-03-11: 0</title></rect>
  <rect x="160" y="48" width="11" height="11" rx="2" ry="2" fill="#40c463"><title>2024-03-12: 19</title></rect>
  <rect x="160" y="62" width="11" height="11" rx="2" ry="2" fill="#30a14e"><title>2024-03-13: 27</title></rect>
  <rect x="160" y="76" width="11" height="11" rx="2" ry="2" fill="#216e39"><title>2024-03-14: 40</title></rect>
  <rect x="160" y="90" width="11" height="11" rx="2" ry="2" fill="#9be9a8"><title>2024-03-15: 9</title></rect>
  <rect x="160" y="104" width="11" height="11" rx="2" ry="2" fill="#ebedf0"><title>2024-03-16: 0</title></rect>
  <rect x="174" y="20" width="11" height="11" rx="2" ry="2" fill="#216e39"><title>2024-03-17: 40</title></rect>
  <rect x="174" y="34" width="11" height="11" rx="2" ry="2" fill="#ebedf0"><title>2024-03-18: 0</title></rect>
  <rect x="174" y="48" width="11" height="11" rx="2" ry="2" fill="#ebedf0"><title>2024-03-19: 0</title></rect>
  <rect x="174" y="62" width="11" height="11" rx="2" ry="2" fill="#216e39"><title>2024-03-20: 44</title></rect>
  <rect x="174" y="76" width="11" height="11" rx="2" ry="2" fill="#ebedf0"><title>2024-03-21: 0</title></rect>
  <rect x="174" y="90" width="11" height="11" rx="2" ry="2" fill="#30a14e"><title>2024-03-22: 26</title></rect>
  <rect x="174" y="104" width="11" height="11" rx="2" ry="2" fill="#30a14e"><title>2024-03-23: 31</title></rect>
  <rect x="188" y="20" width="11" height="11" rx="2" ry="2" fill="#ebedf0"><title>2024-03-24: 0</title></rect>
  <rect x="188" y="34" width="11" height="11" rx="2" ry="2" fill="#9be9a8"><title>2024-03-25: 5</title></rect>
  <rect x="188" y="48" width="11" height="11" rx="2" ry="2" fill="#ebedf0"><title>2024-03-26: 0</title></rect>
  <rect x="188" y="62" width="11" height="11" rx="2" ry="2" fill="#9be9a8"><title>2024-03-27: 8</title></rect>
  <rect x="188" y="76" width="11" height="11" rx="2" ry="2" fill="#9be9a8"><title>2024-03-28: 4</title></rect>
  <rect x="188" y="90" width="11" height="11" rx="2" ry="2" fill="#216e39"><title>2024-03-29: 37</title></rect>
  <rect x="188" y="104" width="11" height="11" rx="2" ry="2" fill="#9be9a8"><title>2024-03-30: 7</title></rect>
  <rect x="202" y="20" width="11" height="11" rx="2" ry="2" fill="#ebedf0"><title>2024-03-31: 0</title></rect>
  <rect x="202" y="34" width="11" height="11" rx="2" ry="2" fill="#ebedf0"><title>2024-04-01: 0</title></rect>
  <rect x="202" y="48" width="11" height="11" rx="2" ry="2" fill="#40c463"><title>2024-04-02: 14</title></rect>
  <rect x="202" y="62" width="11" height="11" rx="2" ry="2" fill="#ebedf0"><title>2024-04-03: 0</title></rect>
  <rect x="202" y="76" width="11" height="11" rx="2" ry="2" fill="#40c463"><title>2024-04-04: 17</title></rect>
  <rect x="202" y="90" width="11" height="11" rx="2" ry="2" fill="#ebedf0"><title>2024-04-05: 0</title></rect>
  <rect x="202" y="104" width="11" height="11" rx="2" ry="2" fill="#ebedf0"><title>2024-04-06: 0</title></rect>
  <rect x="216" y="20" width="11" height="11" rx="2" ry="2" fill="#9be9a8"><title>2024-04-07: 8</title></rect>
  <rect x="216" y="34" width="11" height="11" rx="2" ry="2" fill="#ebedf0"><title>2024-04-08: 0</title></rect>
  <rect x="216" y="48" width="11" height="11" rx="2" ry="2" fill="#ebedf0"><title>2024-04-09: 0</title></rect>
  <rect x="216" y="62" width="11" height="11" rx="2" ry="2" fill="#30a14e"><title>2024-04-10: 31</title></rect>
  <rect x="216" y="76" width="11" height="11" rx="2" ry="2" fill="#9be9a8"><title>2024-04-11: 10</title></rect>
  <rect x="216" y="90" width="11" height="11" rx="2" ry="2" fill="#40c463"><title>2024-04-12: 22</title></rect>
  <rect x="216" y="104" width="11" height="11" rx="2" ry="2" fill="#ebedf0"><title>2024-04-13: 0</title></rect>
  <rect x="230" y="20" width="11" height="11" rx="2" ry="2" fill="#216e39"><title>2024-04-14: 45</title></rect>
  <rect x="230" y="34" width="11" height="11" rx="2" ry="2" fill="#9be9a8"><title>2024-04-15: 2</title></rect>
  <rect x="230" y="48" width="11" height="11" rx="2" ry="2" fill="#216e39"><title>2024-04-16: 34</title></rect>
  <rect x="230" y="62" width="11" height="11" rx="2" ry="2" fill="#216e39"><title>2024-04-17: 45</title></rect>
  <rect x="230" y="76" width="11" height="11" rx="2" ry="2" fill="#9be9a8"><title>2024-04-18: 2</title></rect>
  <rect x="230" y="90" width="11" height="11" rx="2" ry="2" fill="#ebedf0"><title>2024-04-19: 0</title></rect>
  <rect x="230" y="104" width="11" height="11" rx="2" ry="2" fill="#216e39"><title>2024-04-20: 42</title></rect>
  <rect x="244" y="20" width="11" height="11" rx="2" ry="2" fill="#ebedf0"><title>2024-04-21: 0</title></rect>
  <rect x="244" y="34" width="11" height="11" rx="2" ry="2" fill="#ebedf0"><title>2024-04-22: 0</title></rect>
  <rect x="244" y="48" width="11" height="11" rx="2" ry="2" fill="#30a14e"><title>2024-04-23: 24</title></rect>
  <rect x="244" y="62" width="11" height="11" rx="2" ry="2" fill="#ebedf0"><title>2024-04-24: 0</title></rect>
  <rect x="244" y="76" width="11" height="11" rx="2" ry="2" fill="#40c463"><title>2024-04-25: 15</title></rect>
  <rect x="244" y="90" width="11" height="11" rx="2" ry="2" fill="#30a14e"><title>2024-04-26: 33</title></rect>
  <rect x="244" y="104" width="11" height="11" rx="2" ry="2" fill="#40c463"><title>2024-04-27: 15</title></rect>
  <rect x="258" y="20" width="11" height="11" rx="2" ry="2" fill="#ebedf0"><title>2024-04-28: 0</title></rect>
  <rect x="258" y="34" width="11" height="11" rx="2" ry="2" fill="#ebedf0"><title>2024-04-29: 0</title></rect>
  <rect x="258" y="48" width="11" height="11" rx="2" ry="2" fill="#ebedf0"><title>2024-04-30: 0</title></rect>
  <rect x="258" y="62" width="11" height="11" rx="2" ry="2" fill="#40c463"><title>2024-05-01: 16</title></rect>
  <rect x="258" y="76" width="11" height="11" rx="2" ry="2" fill="#ebedf0"><title>2024-05-02: 0</title></rect>
  <rect x="258" y="90" width="11" height="11" rx="2" ry="2" fill="#ebedf0"><title>2024-05-03: 0</title></rect>
  <rect x="258" y="104" width="11" height="11" rx="2" ry="2" fill="#216e39"><title>2024-05-04: 34</title></rect>
  <rect x="272" y="20" width="11" height="11" rx="2" ry="2" fill="#9be9a8"><title>2024-05-05: 2</title></rect>
  <rect x="272" y="34" width="11" height="11" rx="2" ry="2" fill="#ebedf0"><title>2024-05-06: 0</title></rect>
  <rect x="272" y="48" width="11" height="11" rx="2" ry="2" fill="#ebedf0"><title>2024-05-07: 0</title></rect>
  <rect x="272" y="62" width="11" height="11" rx="2" ry="2" fill="#40c463"><title>2024-05-08: 13</title></rect>
  <rect x="272" y="76" width="11" height="11" rx="2" ry="2" fill="#ebedf0"><title>2024-05-09: 0</title></rect>
  <rect x="272" y="90" width="11" height="11" rx="2" ry="2" fill="#ebedf0"><title>2024-05-10: 0</title></rect>
  <rect x="272" y="104" width="11" height="11" rx="2" ry="2" fill="#30a14e"><title>2024-05-11: 23</title></rect>
  <rect x="286" y="20" width="11" height="11" rx="2" ry="2" fill="#ebedf0"><title>2024-05-12: 0</title></rect>
  <rect x="286" y="34" width="11" height="11" rx="2" ry="2" fill="#40c463"><title>2024-05-13: 15</title></rect>
  <rect x="286" y="48" width="11" height="11" rx="2" ry="2" fill="#30a14e"><title>2024-05-14: 31</title></rect>
  <rect x="286" y="62" width="11" height="11" rx="2" ry="2" fill="#40c463"><title>2024-05-15: 14</title></rect>
  <rect x="286" y="76" width="11" height="11" rx="2" ry="2" fill="#216e39"><title>2024-05-16: 40</title></rect>
  <rect x="286" y="90" width="11" height="11" rx="2" ry="2" fill="#ebedf0"><title>2024-05-17: 0</title></rect>
  <rect x="286" y="104" width="11" height="11" rx="2" ry="2" fill="#216e39"><title>2024-05-18: 42</title></rect>
  <rect x="300" y="20" width="11" height="11" rx="2" ry="2" fill="#216e39"><title>2024-05-19: 42</title></rect>
  <rect x="300" y="34" width="11" height="11" rx="2" ry="2" fill="#216e39"><title>2024-05-20: 43</title></rect>
  <rect x="300" y="48" width="11" height="11" rx="2" ry="2" fill="#30a14e"><title>2024-05-21: 25</title></rect>
  <rect x="300" y="62" width="11" height="11" rx="2" ry="2" fill="#ebedf0"><title>2024-05-22: 0</title></rect>
  <rect x="300" y="76" width="11" height="11" rx="2" ry="2" fill="#ebedf0"><title>2024-05-23: 0</title></rect>
  <rect x="300" y="90" width="11" height="11" rx="2" ry="2" fill="#40c463"><title>2024-05-24: 12</title></rect>
  <rect x="300" y="104" width="11" height="11" rx="2" ry="2" fill="#216e39"><title>2024-05-25: 41</title></rect>
  <rect x="314" y="20" width="11" height="11" rx="2" ry="2" fill="#30a14e"><title>2024-05-26: 26</title></rect>
  <rect x="314" y="34" width="11" height="11" rx="2" ry="2" fill="#9be9a8"><title>2024-05-27: 6</title></rect>
  <rect x="314" y="48" width="11" height="11" rx="2" ry="2" fill="#ebedf0"><title>2024-05-28: 0</title></rect>
  <rect x="314" y="62" width="11" height="11" rx="2" ry="2" fill="#9be9a8"><title>2024-05-29: 9</title></rect>
  <rect x="314" y="76" width="11" height="11" rx="2" ry="2" fill="#216e39"><title>2024-05-30: 38</title></rect>
  <rect x="314" y="90" width="11" height="11" rx="2" ry="2" fill="#ebedf0"><title>2024-05-31: 0</title></rect>
  <rect x="314" y="104" width="11" height="11" rx="2" ry="2" fill="#ebedf0"><title>2024-06-01: 0</title></rect>
  <rect x="328" y="20" width="11" height="11" rx="2" ry="2" fill="#216e39"><title>2024-06-02: 39</title></rect>
  <rect x="328" y="34" width="11" height="11" rx="2" ry="2" fill="#ebedf0"><title>2024-06-03: 0</title></rect>
  <rect x="328" y="48" width="11" height="11" rx="2" ry="2" fill="#ebedf0"><title>2024-06-04: 0</title></rect>
  <rect x="328" y="62" width="11" height="11" rx="2" ry="2" fill="#216e39"><title>2024-06-05: 36</title></rect>
  <rect x="328" y="76" width="11" height="11" rx="2" ry="2" fill="#9be9a8"><title>2024-06-06: 2</title></rect>
  <rect x="328" y="90" width="11" height="11" rx="2" ry="2" fill="#216e39"><title>2024-06-07: 42</title></rect>
  <rect x="328" y="104" width="11" height="11" rx="2" ry="2" fill="#9be9a8"><title>2024-06-08: 9</title></rect>
  <rect x="342" y="20" width="11" height="11" rx="2" ry="2" fill="#40c463"><title>2024-06-09: 13</title></rect>
  <rect x="342" y="34" width="11" height="11" rx="2" ry="2" fill="#ebedf0"><title>2024-06-10: 0</title></rect>
  <rect x="342" y="48" width="11" height="11" rx="2" ry="2" fill="#40c463"><title>2024-06-11: 17</title></rect>
  <rect x="342" y="62" width="11" height="11" rx="2" ry="2" fill="#30a14e"><title>2024-06-12: 33</title></rect>
  <rect x="342" y="76" width="11" height="11" rx="2" ry="2" fill="#216e39"><title>2024-06-13: 38</title></rect>
  <rect x="342" y="90" width="11" height="11" rx="2" ry="2" fill="#216e39"><title>2024-06-14: 35</title></rect>
  <rect x="342" y="104" width="11" height="11" rx="2" ry="2" fill="#9be9a8"><title>2024-06-15: 9</title></rect>
  <rect x="356" y="20" width="11" height="11" rx="2" ry="2" fill="#30a14e"><title>2024-06-16: 23</title></rect>
  <rect x="356" y="34" width="11" height="11" rx="2" ry="2" fill="#ebedf0"><title>2024-06-17: 0</title></rect>
  <rect x="356" y="48" width="11" height="11" rx="2" ry="2" fill="#ebedf0"><title>2024-06-18: 0</title></rect>
  <rect x="356" y="62" width="11" height="11" rx="2" ry="2" fill="#ebedf0"><title>2024-06-19: 0</title></rect>
  <rect x="356" y="76" width="11" height="11" rx="2" ry="2" fill="#30a14e"><title>2024-06-20: 33</title></rect>
  <rect x="356" y="90" width="11" height="11" rx="2" ry="2" fill="#9be9a8"><title>2024-06-21: 10</title></rect>
  <rect x="356" y="104" width="11" height="11" rx="2" ry="2" fill="#9be9a8"><title>2024-06-22: 2</title></rect>
  <rect x="370" y="20" width="11" height="11" rx="2" ry="2" fill="#ebedf0"><title>2024-06-23: 0</title></rect>
  <rect x="370" y="34" width="11" height="11" rx="2" ry="2" fill="#ebedf0"><title>2024-06-24: 0</title></rect>
  <rect x="370" y="48" width="11" height="11" rx="2" ry="2" fill="#ebedf0"><title>2024-06-25: 0</title></rect>
  <rect x="370" y="62" width="11" height="11" rx="2" ry="2" fill="#ebedf0"><title>2024-06-26: 0</title></rect>
  <rect x="370" y="76" width="11" height="11" rx="2" ry="2" fill="#9be9a8"><title>2024-06-27: 10</title></rect>
  <rect x="370" y="90" width="11" height="11" rx="2" ry="2" fill="#9be9a8"><title>2024-06-28: 8</title></rect>
  <rect x="370" y="104" width="11" height="11" rx="2" ry="2" fill="#40c463"><title>2024-06-29: 21</title></rect>
  <rect x="384" y="20" width="11" height="11" rx="2" ry="2" fill="#ebedf0"><title>2024-06-30: 0</title></rect>
  <rect x="384" y="34" width="11" height="11" rx="2" ry="2" fill="#30a14e"><title>2024-07-01: 31</title></rect>
  <rect x="384" y="48" width="11" height="11" rx="2" ry="2" fill="#ebedf0"><title>2024-07-02: 0</title></rect>
  <rect x="384" y="62" width="11" height="11" rx="2" ry="2" fill="#216e39"><title>2024-07-03: 36</title></rect>
  <rect x="384" y="76" width="11" height="11" rx="2" ry="2" fill="#40c463"><title>2024-07-04: 13</title></rect>
  <rect x="384" y="90" width="11" height="11" rx="2" ry="2" fill="#9be9a8"><title>2024-07-05: 7</title></rect>
  <rect x="384" y="104" width="11" height="11" rx="2" ry="2" fill="#216e39"><title>2024-07-06: 36</title></rect>
  <rect x="398" y="20" width="11" height="11" rx="2" ry="2" fill="#9be9a8"><title>2024-07-07: 5</title></rect>
  <rect x="398" y="34" width="11" height="11" rx="2" ry="2" fill="#216e39"><title>2024-07-08: 40</title></rect>
  <rect x="398" y="48" width="11" height="11" rx="2" ry="2" fill="#ebedf0"><title>2024-07-09: 0</title></rect>
  <rect x="398" y="62" width="11" height="11" rx="2" ry="2" fill="#ebedf0"><title>2024-07-10: 0</title></rect>
  <rect x="398" y="76" width="11" height="11" rx="2" ry="2" fill="#40c463"><title>2024-07-11: 18</title></rect>
  <rect x="398" y="90" width="11" height="11" rx="2" ry="2" fill="#216e39"><title>2024-07-12: 35</title></rect>
  <rect x="398" y="104" width="11" height="11" rx="2" ry="2" fill="#ebedf0"><title>2024-07-13: 0</title></rect>
  <rect x="412" y="20" width="11" height="11" rx="2" ry="2" fill="#40c463"><title>2024-07-14: 16</title></rect>
  <rect x="412" y="34" width="11" height="11" rx="2" ry="2" fill="#ebedf0"><title>2024-07-15: 0</title></rect>
  <rect x="412" y="48" width="11" height="11" rx="2" ry="2" fill="#ebedf0"><title>2024-07-16: 0</title></rect>
  <rect x="412" y="62" width="11" height="11" rx="2" ry="2" fill="#ebedf0"><title>2024-07-17: 0</title></rect>
  <rect x="412" y="76" width="11" height="11" rx="2" ry="2" fill="#216e39"><title>2024-07-18: 36</title></rect>
</svg>
